# xmcd
#
# Track frame offsets:
#	150
#	11495
#	23710
#	34077
#	47954
#	57995
#	68400
#	78222
#	89240
#	99922
#	111402
#	123847
#	134797
#	143532
#	153795
#	164945
#	177902
#	189036
#	199231
#	210388
#
# Disc length: 2947 seconds
#
# Revision: 1
# Processed by: cddbd v1.4PL0 Copyright (c) Steve Scherf et al.
# Submitted via: audiograbber 1.82.02
#
DISCID=0f0b8114
DTITLE=Patsy Cline - Walkin' After Midnight
DYEAR=1900
DGENRE=Country
TTITLE0=Walkin' After Midnight
TTITLE1=A Poor Man's Roses (Or A Rich Man's Gold)
TTITLE2=I Love You Honey
TTITLE3=A Church, A Courtroom And Then Goodbye
TTITLE4=Three Cigarettes In An Ashtray
TTITLE5=Lovesick Blues
TTITLE6=Turn The Cards Slowly
TTITLE7=Hidin' Out
TTITLE8=I Cried All The Way To The Alter
TTITLE9=I've Loved And Lost Again
TTITLE10=Fingerprints
TTITLE11=A Stranger In My Arms
TTITLE12=Try Again
TTITLE13=He Will Do For You
TTITLE14=That Wonderful Someone
TTITLE15=If I Could See The World
TTITLE16=Cry Not For Me
TTITLE17=Walking Dream
TTITLE18=Just Out Of Reach
TTITLE19=I Don't Wanta
EXTD=LT - 5003
EXTT0=
EXTT1=
EXTT2=
EXTT3=
EXTT4=
EXTT5=
EXTT6=
EXTT7=
EXTT8=
EXTT9=
EXTT10=
EXTT11=
EXTT12=
EXTT13=
EXTT14=
EXTT15=
EXTT16=
EXTT17=
EXTT18=
EXTT19=
PLAYORDER=
